# xmcd
#
# Track frame offsets: 
#        150
#        11560
#        21400
#        29787
#        44630
#        54422
#        69537
#        83760
#        97985
#        110005
#        122487
#        133287
#        144800
#        160887
#        172435
#        183097
#
# Disc length: 2758 seconds
#
# Revision: 0
# Processed by: cddbd v1.5.1PL2 Copyright (c) Steve Scherf et al.
# Submitted via: ExactAudioCopy v0.95a5
#
DISCID=e20ac410
DTITLE=Various Artist - Country Christmas Vol. 2 - 16 Biggest Hits
DYEAR=2004
DGENRE=Country
TTITLE0=Gene Autry - Here Comes Santa Claus
TTITLE1=Johnny Horton - They Shined Up Rudolph's Nose
TTITLE2=Dolly Parton - Santa Claus Is Coming To Town
TTITLE3=Joe Diffie - Leroy The Redneck Reindeer
TTITLE4=Sweethearts Of The Rodeo - Jingle Bell Rock
TTITLE5=Collin Raye - Winter Wonderland
TTITLE6=Merle Haggard - White Christmas
TTITLE7=Chet Atkins - The Christmas Song
TTITLE8=Marty Robbins - Merry Christmas To You From Me
TTITLE9=Roy Orbison - Pretty Paper
TTITLE10=Johnny Cash - Blue Christmas
TTITLE11=Ricky Van Shelton - Please Come Home For Christmas
TTITLE12=Tammy Cochran - Merry Christmas Darling
TTITLE13=Doug Stone - All I Want For Christmas Is You
TTITLE14=George Jones and Tammy Wynette - The Greatest Christmas Gift
TTITLE15=Grandpa Jones - The Christmas Guest
EXTD=
EXTT0=
EXTT1=
EXTT2=
EXTT3=
EXTT4=
EXTT5=
EXTT6=
EXTT7=
EXTT8=
EXTT9=
EXTT10=
EXTT11=
EXTT12=
EXTT13=
EXTT14=
EXTT15=
PLAYORDER=
